<svg width="32" height="32" viewBox="0 0 32 32" fill="none" xmlns="http://www.w3.org/2000/svg">
<path d="M16 32C7.16308 32 0 24.8369 0 16C0 7.16308 7.16308 0 16 0C24.8369 0 32 7.16308 32 16C32 24.8369 24.8369 32 16 32ZM23.9237 15.3083C23.9237 14.6289 23.3723 14.0775 22.6929 14.0775H17.7698V9.15446C17.7698 8.47508 17.2197 7.92369 16.5391 7.92369H15.3083C14.6277 7.92369 14.0775 8.47508 14.0775 9.15446V14.0775H9.15446C8.47385 14.0775 7.92369 14.6289 7.92369 15.3083V16.5391C7.92369 17.2197 8.47385 17.7698 9.15446 17.7698H14.0775V22.6929C14.0775 23.3735 14.6277 23.9237 15.3083 23.9237H16.5391C17.2197 23.9237 17.7698 23.3735 17.7698 22.6929V17.7698H22.6929C23.3723 17.7698 23.9237 17.2197 23.9237 16.5391V15.3083V15.3083Z" fill="#0061BA"/>
</svg>
